<?xml version="1.0" encoding="UTF-8" standalone="no"?>
<!DOCTYPE svg PUBLIC "-//W3C//DTD SVG 1.1//EN"
 "http://www.w3.org/Graphics/SVG/1.1/DTD/svg11.dtd">
<!-- Generated by graphviz version 14.1.4 (20260321.0153)
 -->
<!-- Title: c17 Pages: 1 -->
<svg width="1270pt" height="267pt"
 viewBox="0.00 0.00 1270.00 267.00" xmlns="http://www.w3.org/2000/svg" xmlns:xlink="http://www.w3.org/1999/xlink">
<g id="graph0" class="graph" transform="scale(1 1) rotate(0) translate(4 262.5)">
<title>c17</title>
<polygon fill="white" stroke="none" points="-4,4 -4,-262.5 1266.05,-262.5 1266.05,4 -4,4"/>
<text xml:space="preserve" text-anchor="middle" x="631.02" y="-7.2" font-family="Times,serif" font-size="14.00">c17</text>
<!-- n13 -->
<g id="node1" class="node">
<title>n13</title>
<polygon fill="none" stroke="black" points="833.34,-221.5 795.46,-203.5 833.34,-185.5 871.22,-203.5 833.34,-221.5"/>
<text xml:space="preserve" text-anchor="middle" x="833.34" y="-198.45" font-family="Times,serif" font-size="14.00">N19</text>
</g>
<!-- c28 -->
<g id="node13" class="node">
<title>c28</title>
<polygon fill="none" stroke="black" points="907.22,-173 907.22,-222 1000.97,-222 1000.97,-173 907.22,-173"/>
<text xml:space="preserve" text-anchor="middle" x="920.09" y="-204.7" font-family="Times,serif" font-size="14.00">A</text>
<polyline fill="none" stroke="black" points="907.22,-197.5 932.97,-197.5"/>
<text xml:space="preserve" text-anchor="middle" x="920.09" y="-180.2" font-family="Times,serif" font-size="14.00">B</text>
<polyline fill="none" stroke="black" points="932.97,-173 932.97,-222"/>
<text xml:space="preserve" text-anchor="middle" x="954.09" y="-200.7" font-family="Times,serif" font-size="14.00">$11</text>
<text xml:space="preserve" text-anchor="middle" x="954.09" y="-184.2" font-family="Times,serif" font-size="14.00">$and</text>
<polyline fill="none" stroke="black" points="975.22,-173 975.22,-222"/>
<text xml:space="preserve" text-anchor="middle" x="988.09" y="-192.7" font-family="Times,serif" font-size="14.00">Y</text>
</g>
<!-- n13&#45;&gt;c28 -->
<g id="edge6" class="edge">
<title>n13:e&#45;&gt;c28:w</title>
<path fill="none" stroke="black" d="M871.22,-203.5C884.53,-203.5 888.03,-193.45 896.28,-188.26"/>
<polygon fill="black" stroke="black" points="897.05,-191.68 905.76,-185.65 895.19,-184.94 897.05,-191.68"/>
</g>
<!-- n14 -->
<g id="node2" class="node">
<title>n14</title>
<polygon fill="none" stroke="black" points="833.34,-162.5 795.46,-144.5 833.34,-126.5 871.22,-144.5 833.34,-162.5"/>
<text xml:space="preserve" text-anchor="middle" x="833.34" y="-139.45" font-family="Times,serif" font-size="14.00">N16</text>
</g>
<!-- n14&#45;&gt;c28 -->
<g id="edge8" class="edge">
<title>n14:e&#45;&gt;c28:w</title>
<path fill="none" stroke="black" d="M871.22,-144.5C899.68,-144.5 881.35,-192.69 896.65,-206.24"/>
<polygon fill="black" stroke="black" points="895.19,-209.44 905.78,-209.27 897.39,-202.8 895.19,-209.44"/>
</g>
<!-- c30 -->
<g id="node15" class="node">
<title>c30</title>
<polygon fill="none" stroke="black" points="907.22,-70 907.22,-119 1000.97,-119 1000.97,-70 907.22,-70"/>
<text xml:space="preserve" text-anchor="middle" x="920.09" y="-101.7" font-family="Times,serif" font-size="14.00">A</text>
<polyline fill="none" stroke="black" points="907.22,-94.5 932.97,-94.5"/>
<text xml:space="preserve" text-anchor="middle" x="920.09" y="-77.2" font-family="Times,serif" font-size="14.00">B</text>
<polyline fill="none" stroke="black" points="932.97,-70 932.97,-119"/>
<text xml:space="preserve" text-anchor="middle" x="954.09" y="-97.7" font-family="Times,serif" font-size="14.00">$9</text>
<text xml:space="preserve" text-anchor="middle" x="954.09" y="-81.2" font-family="Times,serif" font-size="14.00">$and</text>
<polyline fill="none" stroke="black" points="975.22,-70 975.22,-119"/>
<text xml:space="preserve" text-anchor="middle" x="988.09" y="-89.7" font-family="Times,serif" font-size="14.00">Y</text>
</g>
<!-- n14&#45;&gt;c30 -->
<g id="edge9" class="edge">
<title>n14:e&#45;&gt;c30:w</title>
<path fill="none" stroke="black" d="M871.22,-144.5C898.43,-144.5 882.23,-99.36 896.55,-85.96"/>
<polygon fill="black" stroke="black" points="897.49,-89.34 905.79,-82.75 895.19,-82.72 897.49,-89.34"/>
</g>
<!-- n15 -->
<g id="node3" class="node">
<title>n15</title>
<polygon fill="none" stroke="black" points="424.73,-150.5 386.85,-132.5 424.73,-114.5 462.61,-132.5 424.73,-150.5"/>
<text xml:space="preserve" text-anchor="middle" x="424.73" y="-127.45" font-family="Times,serif" font-size="14.00">N11</text>
</g>
<!-- c32 -->
<g id="node17" class="node">
<title>c32</title>
<polygon fill="none" stroke="black" points="498.61,-188 498.61,-237 592.36,-237 592.36,-188 498.61,-188"/>
<text xml:space="preserve" text-anchor="middle" x="511.48" y="-219.7" font-family="Times,serif" font-size="14.00">A</text>
<polyline fill="none" stroke="black" points="498.61,-212.5 524.36,-212.5"/>
<text xml:space="preserve" text-anchor="middle" x="511.48" y="-195.2" font-family="Times,serif" font-size="14.00">B</text>
<polyline fill="none" stroke="black" points="524.36,-188 524.36,-237"/>
<text xml:space="preserve" text-anchor="middle" x="545.48" y="-215.7" font-family="Times,serif" font-size="14.00">$7</text>
<text xml:space="preserve" text-anchor="middle" x="545.48" y="-199.2" font-family="Times,serif" font-size="14.00">$and</text>
<polyline fill="none" stroke="black" points="566.61,-188 566.61,-237"/>
<text xml:space="preserve" text-anchor="middle" x="579.48" y="-207.7" font-family="Times,serif" font-size="14.00">Y</text>
</g>
<!-- n15&#45;&gt;c32 -->
<g id="edge11" class="edge">
<title>n15:e&#45;&gt;c32:w</title>
<path fill="none" stroke="black" d="M462.61,-132.5C501.98,-132.5 464.5,-206.32 487.66,-221.89"/>
<polygon fill="black" stroke="black" points="486.58,-225.22 497.14,-224.37 488.35,-218.45 486.58,-225.22"/>
</g>
<!-- c34 -->
<g id="node19" class="node">
<title>c34</title>
<polygon fill="none" stroke="black" points="498.61,-120 498.61,-169 592.36,-169 592.36,-120 498.61,-120"/>
<text xml:space="preserve" text-anchor="middle" x="511.48" y="-151.7" font-family="Times,serif" font-size="14.00">A</text>
<polyline fill="none" stroke="black" points="498.61,-144.5 524.36,-144.5"/>
<text xml:space="preserve" text-anchor="middle" x="511.48" y="-127.2" font-family="Times,serif" font-size="14.00">B</text>
<polyline fill="none" stroke="black" points="524.36,-120 524.36,-169"/>
<text xml:space="preserve" text-anchor="middle" x="545.48" y="-147.7" font-family="Times,serif" font-size="14.00">$5</text>
<text xml:space="preserve" text-anchor="middle" x="545.48" y="-131.2" font-family="Times,serif" font-size="14.00">$and</text>
<polyline fill="none" stroke="black" points="566.61,-120 566.61,-169"/>
<text xml:space="preserve" text-anchor="middle" x="579.48" y="-139.7" font-family="Times,serif" font-size="14.00">Y</text>
</g>
<!-- n15&#45;&gt;c34 -->
<g id="edge12" class="edge">
<title>n15:e&#45;&gt;c34:w</title>
<path fill="none" stroke="black" d="M462.61,-132.5C473.98,-132.5 479.29,-132.37 487.16,-132.3"/>
<polygon fill="black" stroke="black" points="487.11,-135.8 497.09,-132.26 487.08,-128.8 487.11,-135.8"/>
</g>
<!-- n16 -->
<g id="node4" class="node">
<title>n16</title>
<polygon fill="none" stroke="black" points="545.48,-100.5 507.6,-82.5 545.48,-64.5 583.36,-82.5 545.48,-100.5"/>
<text xml:space="preserve" text-anchor="middle" x="545.48" y="-77.45" font-family="Times,serif" font-size="14.00">N10</text>
</g>
<!-- n16&#45;&gt;c30 -->
<g id="edge14" class="edge">
<title>n16:e&#45;&gt;c30:w</title>
<path fill="none" stroke="black" d="M585.5,-82.5C725.11,-82.5 761.91,-105.49 896.1,-106.7"/>
<polygon fill="black" stroke="black" points="895.69,-110.2 905.7,-106.74 895.72,-103.2 895.69,-110.2"/>
</g>
<!-- n17 -->
<g id="node5" class="node">
<title>n17</title>
<polygon fill="none" stroke="black" points="1262.05,-190.04 1262.05,-204.96 1245.07,-215.5 1221.05,-215.5 1204.07,-204.96 1204.07,-190.04 1221.05,-179.5 1245.07,-179.5 1262.05,-190.04"/>
<text xml:space="preserve" text-anchor="middle" x="1233.06" y="-192.45" font-family="Times,serif" font-size="14.00">N23</text>
</g>
<!-- n18 -->
<g id="node6" class="node">
<title>n18</title>
<polygon fill="none" stroke="black" points="1262.05,-87.04 1262.05,-101.96 1245.07,-112.5 1221.05,-112.5 1204.07,-101.96 1204.07,-87.04 1221.05,-76.5 1245.07,-76.5 1262.05,-87.04"/>
<text xml:space="preserve" text-anchor="middle" x="1233.06" y="-89.45" font-family="Times,serif" font-size="14.00">N22</text>
</g>
<!-- n19 -->
<g id="node7" class="node">
<title>n19</title>
<polygon fill="none" stroke="black" points="451.73,-233.04 451.73,-247.96 435.91,-258.5 413.55,-258.5 397.73,-247.96 397.73,-233.04 413.55,-222.5 435.91,-222.5 451.73,-233.04"/>
<text xml:space="preserve" text-anchor="middle" x="424.73" y="-235.45" font-family="Times,serif" font-size="14.00">N7</text>
</g>
<!-- n19&#45;&gt;c32 -->
<g id="edge17" class="edge">
<title>n19:e&#45;&gt;c32:w</title>
<path fill="none" stroke="black" d="M452.98,-240.5C475.59,-240.5 473.39,-212.37 487.85,-203.14"/>
<polygon fill="black" stroke="black" points="488.4,-206.62 497.15,-200.64 486.58,-199.86 488.4,-206.62"/>
</g>
<!-- n20 -->
<g id="node8" class="node">
<title>n20</title>
<polygon fill="none" stroke="black" points="54,-143.04 54,-157.96 38.18,-168.5 15.82,-168.5 0,-157.96 0,-143.04 15.82,-132.5 38.18,-132.5 54,-143.04"/>
<text xml:space="preserve" text-anchor="middle" x="27" y="-145.45" font-family="Times,serif" font-size="14.00">N6</text>
</g>
<!-- c36 -->
<g id="node21" class="node">
<title>c36</title>
<polygon fill="none" stroke="black" points="90,-113 90,-162 183.75,-162 183.75,-113 90,-113"/>
<text xml:space="preserve" text-anchor="middle" x="102.88" y="-144.7" font-family="Times,serif" font-size="14.00">A</text>
<polyline fill="none" stroke="black" points="90,-137.5 115.75,-137.5"/>
<text xml:space="preserve" text-anchor="middle" x="102.88" y="-120.2" font-family="Times,serif" font-size="14.00">B</text>
<polyline fill="none" stroke="black" points="115.75,-113 115.75,-162"/>
<text xml:space="preserve" text-anchor="middle" x="136.88" y="-140.7" font-family="Times,serif" font-size="14.00">$3</text>
<text xml:space="preserve" text-anchor="middle" x="136.88" y="-124.2" font-family="Times,serif" font-size="14.00">$and</text>
<polyline fill="none" stroke="black" points="158,-113 158,-162"/>
<text xml:space="preserve" text-anchor="middle" x="170.88" y="-132.7" font-family="Times,serif" font-size="14.00">Y</text>
</g>
<!-- n20&#45;&gt;c36 -->
<g id="edge19" class="edge">
<title>n20:e&#45;&gt;c36:w</title>
<path fill="none" stroke="black" d="M54,-150.5C68.81,-150.5 70.62,-136 79.14,-128.98"/>
<polygon fill="black" stroke="black" points="80.25,-132.3 88.57,-125.74 77.97,-125.68 80.25,-132.3"/>
</g>
<!-- n21 -->
<g id="node9" class="node">
<title>n21</title>
<polygon fill="none" stroke="black" points="54,-35.04 54,-49.96 38.18,-60.5 15.82,-60.5 0,-49.96 0,-35.04 15.82,-24.5 38.18,-24.5 54,-35.04"/>
<text xml:space="preserve" text-anchor="middle" x="27" y="-37.45" font-family="Times,serif" font-size="14.00">N3</text>
</g>
<!-- n21&#45;&gt;c36 -->
<g id="edge20" class="edge">
<title>n21:e&#45;&gt;c36:w</title>
<path fill="none" stroke="black" d="M54,-42.5C99.76,-42.5 50.39,-131.34 79.06,-147.31"/>
<polygon fill="black" stroke="black" points="78,-150.66 88.52,-149.42 79.53,-143.83 78,-150.66"/>
</g>
<!-- c38 -->
<g id="node23" class="node">
<title>c38</title>
<polygon fill="none" stroke="black" points="90,-45 90,-94 183.75,-94 183.75,-45 90,-45"/>
<text xml:space="preserve" text-anchor="middle" x="102.88" y="-76.7" font-family="Times,serif" font-size="14.00">A</text>
<polyline fill="none" stroke="black" points="90,-69.5 115.75,-69.5"/>
<text xml:space="preserve" text-anchor="middle" x="102.88" y="-52.2" font-family="Times,serif" font-size="14.00">B</text>
<polyline fill="none" stroke="black" points="115.75,-45 115.75,-94"/>
<text xml:space="preserve" text-anchor="middle" x="136.88" y="-72.7" font-family="Times,serif" font-size="14.00">$1</text>
<text xml:space="preserve" text-anchor="middle" x="136.88" y="-56.2" font-family="Times,serif" font-size="14.00">$and</text>
<polyline fill="none" stroke="black" points="158,-45 158,-94"/>
<text xml:space="preserve" text-anchor="middle" x="170.88" y="-64.7" font-family="Times,serif" font-size="14.00">Y</text>
</g>
<!-- n21&#45;&gt;c38 -->
<g id="edge21" class="edge">
<title>n21:e&#45;&gt;c38:w</title>
<path fill="none" stroke="black" d="M54,-42.5C66.7,-42.5 70.84,-50.45 78.99,-54.68"/>
<polygon fill="black" stroke="black" points="77.99,-58.04 88.53,-56.91 79.58,-51.23 77.99,-58.04"/>
</g>
<!-- n22 -->
<g id="node10" class="node">
<title>n22</title>
<polygon fill="none" stroke="black" points="451.73,-179.04 451.73,-193.96 435.91,-204.5 413.55,-204.5 397.73,-193.96 397.73,-179.04 413.55,-168.5 435.91,-168.5 451.73,-179.04"/>
<text xml:space="preserve" text-anchor="middle" x="424.73" y="-181.45" font-family="Times,serif" font-size="14.00">N2</text>
</g>
<!-- n22&#45;&gt;c34 -->
<g id="edge22" class="edge">
<title>n22:e&#45;&gt;c34:w</title>
<path fill="none" stroke="black" d="M452.98,-186.5C472.65,-186.5 474.5,-166.86 487.48,-159.5"/>
<polygon fill="black" stroke="black" points="488.27,-162.91 497.14,-157.11 486.59,-156.11 488.27,-162.91"/>
</g>
<!-- n23 -->
<g id="node11" class="node">
<title>n23</title>
<polygon fill="none" stroke="black" points="54,-89.04 54,-103.96 38.18,-114.5 15.82,-114.5 0,-103.96 0,-89.04 15.82,-78.5 38.18,-78.5 54,-89.04"/>
<text xml:space="preserve" text-anchor="middle" x="27" y="-91.45" font-family="Times,serif" font-size="14.00">N1</text>
</g>
<!-- n23&#45;&gt;c38 -->
<g id="edge23" class="edge">
<title>n23:e&#45;&gt;c38:w</title>
<path fill="none" stroke="black" d="M54,-96.5C66.7,-96.5 70.84,-88.55 78.99,-84.32"/>
<polygon fill="black" stroke="black" points="79.58,-87.77 88.53,-82.09 77.99,-80.96 79.58,-87.77"/>
</g>
<!-- c26 -->
<g id="node12" class="node">
<title>c26</title>
<polygon fill="none" stroke="black" points="1036.97,-177 1036.97,-218 1128.47,-218 1128.47,-177 1036.97,-177"/>
<text xml:space="preserve" text-anchor="middle" x="1049.84" y="-192.7" font-family="Times,serif" font-size="14.00">A</text>
<polyline fill="none" stroke="black" points="1062.72,-177 1062.72,-218"/>
<text xml:space="preserve" text-anchor="middle" x="1082.72" y="-200.7" font-family="Times,serif" font-size="14.00">$12</text>
<text xml:space="preserve" text-anchor="middle" x="1082.72" y="-184.2" font-family="Times,serif" font-size="14.00">$not</text>
<polyline fill="none" stroke="black" points="1102.72,-177 1102.72,-218"/>
<text xml:space="preserve" text-anchor="middle" x="1115.59" y="-192.7" font-family="Times,serif" font-size="14.00">Y</text>
</g>
<!-- x5 -->
<g id="node29" class="node">
<title>x5</title>
<ellipse fill="black" stroke="black" cx="1166.27" cy="-197.5" rx="1.8" ry="1.8"/>
</g>
<!-- c26&#45;&gt;x5 -->
<g id="edge1" class="edge">
<title>c26:e&#45;&gt;x5:w</title>
<path fill="none" stroke="black" d="M1128.47,-197.75C1139.84,-197.75 1145.15,-197.62 1153.02,-197.55"/>
<polygon fill="black" stroke="black" points="1152.97,-201.05 1162.95,-197.51 1152.94,-194.05 1152.97,-201.05"/>
</g>
<!-- c28&#45;&gt;c26 -->
<g id="edge18" class="edge">
<title>c28:e&#45;&gt;c26:w</title>
<path fill="none" stroke="black" d="M1000.97,-197.75C1012.34,-197.75 1017.65,-197.75 1025.52,-197.75"/>
<polygon fill="black" stroke="black" points="1025.45,-201.25 1035.45,-197.75 1025.45,-194.25 1025.45,-201.25"/>
</g>
<!-- c29 -->
<g id="node14" class="node">
<title>c29</title>
<polygon fill="none" stroke="black" points="1036.97,-74 1036.97,-115 1128.47,-115 1128.47,-74 1036.97,-74"/>
<text xml:space="preserve" text-anchor="middle" x="1049.84" y="-89.7" font-family="Times,serif" font-size="14.00">A</text>
<polyline fill="none" stroke="black" points="1062.72,-74 1062.72,-115"/>
<text xml:space="preserve" text-anchor="middle" x="1082.72" y="-97.7" font-family="Times,serif" font-size="14.00">$10</text>
<text xml:space="preserve" text-anchor="middle" x="1082.72" y="-81.2" font-family="Times,serif" font-size="14.00">$not</text>
<polyline fill="none" stroke="black" points="1102.72,-74 1102.72,-115"/>
<text xml:space="preserve" text-anchor="middle" x="1115.59" y="-89.7" font-family="Times,serif" font-size="14.00">Y</text>
</g>
<!-- x4 -->
<g id="node28" class="node">
<title>x4</title>
<ellipse fill="black" stroke="black" cx="1166.27" cy="-94.5" rx="1.8" ry="1.8"/>
</g>
<!-- c29&#45;&gt;x4 -->
<g id="edge24" class="edge">
<title>c29:e&#45;&gt;x4:w</title>
<path fill="none" stroke="black" d="M1128.47,-94.75C1139.84,-94.75 1145.15,-94.62 1153.02,-94.55"/>
<polygon fill="black" stroke="black" points="1152.97,-98.05 1162.95,-94.51 1152.94,-91.05 1152.97,-98.05"/>
</g>
<!-- c30&#45;&gt;c29 -->
<g id="edge25" class="edge">
<title>c30:e&#45;&gt;c29:w</title>
<path fill="none" stroke="black" d="M1000.97,-94.75C1012.34,-94.75 1017.65,-94.75 1025.52,-94.75"/>
<polygon fill="black" stroke="black" points="1025.45,-98.25 1035.45,-94.75 1025.45,-91.25 1025.45,-98.25"/>
</g>
<!-- c31 -->
<g id="node16" class="node">
<title>c31</title>
<polygon fill="none" stroke="black" points="628.36,-188 628.36,-229 719.86,-229 719.86,-188 628.36,-188"/>
<text xml:space="preserve" text-anchor="middle" x="641.23" y="-203.7" font-family="Times,serif" font-size="14.00">A</text>
<polyline fill="none" stroke="black" points="654.11,-188 654.11,-229"/>
<text xml:space="preserve" text-anchor="middle" x="674.11" y="-211.7" font-family="Times,serif" font-size="14.00">$8</text>
<text xml:space="preserve" text-anchor="middle" x="674.11" y="-195.2" font-family="Times,serif" font-size="14.00">$not</text>
<polyline fill="none" stroke="black" points="694.11,-188 694.11,-229"/>
<text xml:space="preserve" text-anchor="middle" x="706.98" y="-203.7" font-family="Times,serif" font-size="14.00">Y</text>
</g>
<!-- x3 -->
<g id="node27" class="node">
<title>x3</title>
<ellipse fill="black" stroke="black" cx="757.66" cy="-205.5" rx="1.8" ry="1.8"/>
</g>
<!-- c31&#45;&gt;x3 -->
<g id="edge26" class="edge">
<title>c31:e&#45;&gt;x3:w</title>
<path fill="none" stroke="black" d="M719.86,-208.75C731.28,-208.75 736.54,-207.11 744.39,-206.16"/>
<polygon fill="black" stroke="black" points="744.56,-209.65 754.35,-205.59 744.16,-202.67 744.56,-209.65"/>
</g>
<!-- c32&#45;&gt;c31 -->
<g id="edge27" class="edge">
<title>c32:e&#45;&gt;c31:w</title>
<path fill="none" stroke="black" d="M592.36,-212.75C603.8,-212.75 609.03,-210.73 616.89,-209.56"/>
<polygon fill="black" stroke="black" points="617.12,-213.05 626.85,-208.86 616.63,-206.07 617.12,-213.05"/>
</g>
<!-- c33 -->
<g id="node18" class="node">
<title>c33</title>
<polygon fill="none" stroke="black" points="628.36,-124 628.36,-165 719.86,-165 719.86,-124 628.36,-124"/>
<text xml:space="preserve" text-anchor="middle" x="641.23" y="-139.7" font-family="Times,serif" font-size="14.00">A</text>
<polyline fill="none" stroke="black" points="654.11,-124 654.11,-165"/>
<text xml:space="preserve" text-anchor="middle" x="674.11" y="-147.7" font-family="Times,serif" font-size="14.00">$6</text>
<text xml:space="preserve" text-anchor="middle" x="674.11" y="-131.2" font-family="Times,serif" font-size="14.00">$not</text>
<polyline fill="none" stroke="black" points="694.11,-124 694.11,-165"/>
<text xml:space="preserve" text-anchor="middle" x="706.98" y="-139.7" font-family="Times,serif" font-size="14.00">Y</text>
</g>
<!-- x2 -->
<g id="node26" class="node">
<title>x2</title>
<ellipse fill="black" stroke="black" cx="757.66" cy="-144.5" rx="1.8" ry="1.8"/>
</g>
<!-- c33&#45;&gt;x2 -->
<g id="edge28" class="edge">
<title>c33:e&#45;&gt;x2:w</title>
<path fill="none" stroke="black" d="M719.86,-144.75C731.23,-144.75 736.54,-144.62 744.41,-144.55"/>
<polygon fill="black" stroke="black" points="744.36,-148.05 754.34,-144.51 744.33,-141.05 744.36,-148.05"/>
</g>
<!-- c34&#45;&gt;c33 -->
<g id="edge29" class="edge">
<title>c34:e&#45;&gt;c33:w</title>
<path fill="none" stroke="black" d="M592.36,-144.75C603.73,-144.75 609.04,-144.75 616.91,-144.75"/>
<polygon fill="black" stroke="black" points="616.84,-148.25 626.84,-144.75 616.84,-141.25 616.84,-148.25"/>
</g>
<!-- c35 -->
<g id="node20" class="node">
<title>c35</title>
<polygon fill="none" stroke="black" points="219.75,-115 219.75,-156 311.25,-156 311.25,-115 219.75,-115"/>
<text xml:space="preserve" text-anchor="middle" x="232.62" y="-130.7" font-family="Times,serif" font-size="14.00">A</text>
<polyline fill="none" stroke="black" points="245.5,-115 245.5,-156"/>
<text xml:space="preserve" text-anchor="middle" x="265.5" y="-138.7" font-family="Times,serif" font-size="14.00">$4</text>
<text xml:space="preserve" text-anchor="middle" x="265.5" y="-122.2" font-family="Times,serif" font-size="14.00">$not</text>
<polyline fill="none" stroke="black" points="285.5,-115 285.5,-156"/>
<text xml:space="preserve" text-anchor="middle" x="298.38" y="-130.7" font-family="Times,serif" font-size="14.00">Y</text>
</g>
<!-- x1 -->
<g id="node25" class="node">
<title>x1</title>
<ellipse fill="black" stroke="black" cx="349.05" cy="-133.5" rx="1.8" ry="1.8"/>
</g>
<!-- c35&#45;&gt;x1 -->
<g id="edge30" class="edge">
<title>c35:e&#45;&gt;x1:w</title>
<path fill="none" stroke="black" d="M311.25,-135.75C322.65,-135.75 327.93,-134.61 335.8,-133.96"/>
<polygon fill="black" stroke="black" points="335.88,-137.45 345.74,-133.56 335.61,-130.46 335.88,-137.45"/>
</g>
<!-- c36&#45;&gt;c35 -->
<g id="edge2" class="edge">
<title>c36:e&#45;&gt;c35:w</title>
<path fill="none" stroke="black" d="M183.75,-137.75C195.14,-137.75 200.43,-136.74 208.3,-136.15"/>
<polygon fill="black" stroke="black" points="208.37,-139.65 218.24,-135.8 208.12,-132.66 208.37,-139.65"/>
</g>
<!-- c37 -->
<g id="node22" class="node">
<title>c37</title>
<polygon fill="none" stroke="black" points="219.75,-53 219.75,-94 311.25,-94 311.25,-53 219.75,-53"/>
<text xml:space="preserve" text-anchor="middle" x="232.62" y="-68.7" font-family="Times,serif" font-size="14.00">A</text>
<polyline fill="none" stroke="black" points="245.5,-53 245.5,-94"/>
<text xml:space="preserve" text-anchor="middle" x="265.5" y="-76.7" font-family="Times,serif" font-size="14.00">$2</text>
<text xml:space="preserve" text-anchor="middle" x="265.5" y="-60.2" font-family="Times,serif" font-size="14.00">$not</text>
<polyline fill="none" stroke="black" points="285.5,-53 285.5,-94"/>
<text xml:space="preserve" text-anchor="middle" x="298.38" y="-68.7" font-family="Times,serif" font-size="14.00">Y</text>
</g>
<!-- x0 -->
<g id="node24" class="node">
<title>x0</title>
<ellipse fill="black" stroke="black" cx="349.05" cy="-78.5" rx="1.8" ry="1.8"/>
</g>
<!-- c37&#45;&gt;x0 -->
<g id="edge3" class="edge">
<title>c37:e&#45;&gt;x0:w</title>
<path fill="none" stroke="black" d="M311.25,-73.75C322.85,-73.75 328.04,-76.2 336.03,-77.58"/>
<polygon fill="black" stroke="black" points="335.49,-81.05 345.74,-78.38 336.06,-74.08 335.49,-81.05"/>
</g>
<!-- c38&#45;&gt;c37 -->
<g id="edge4" class="edge">
<title>c38:e&#45;&gt;c37:w</title>
<path fill="none" stroke="black" d="M183.75,-69.75C195.2,-69.75 200.43,-71.77 208.28,-72.94"/>
<polygon fill="black" stroke="black" points="208.02,-76.43 218.24,-73.64 208.51,-69.45 208.02,-76.43"/>
</g>
<!-- x0&#45;&gt;n16 -->
<g id="edge13" class="edge">
<title>x0:e&#45;&gt;n16:w</title>
<path fill="none" stroke="black" d="M350.85,-78.5C415.7,-78.5 434.62,-82.06 494.26,-82.46"/>
<polygon fill="black" stroke="black" points="493.94,-85.96 503.95,-82.49 493.96,-78.96 493.94,-85.96"/>
</g>
<!-- x1&#45;&gt;n15 -->
<g id="edge10" class="edge">
<title>x1:e&#45;&gt;n15:w</title>
<path fill="none" stroke="black" d="M350.85,-133.5C362.23,-133.5 367.53,-132.99 375.4,-132.7"/>
<polygon fill="black" stroke="black" points="375.4,-136.2 385.34,-132.53 375.28,-129.2 375.4,-136.2"/>
</g>
<!-- x2&#45;&gt;n14 -->
<g id="edge7" class="edge">
<title>x2:e&#45;&gt;n14:w</title>
<path fill="none" stroke="black" d="M759.46,-144.5C770.83,-144.5 776.14,-144.5 784.01,-144.5"/>
<polygon fill="black" stroke="black" points="783.94,-148 793.94,-144.5 783.94,-141 783.94,-148"/>
</g>
<!-- x3&#45;&gt;n13 -->
<g id="edge5" class="edge">
<title>x3:e&#45;&gt;n13:w</title>
<path fill="none" stroke="black" d="M759.46,-205.5C770.85,-205.5 776.14,-204.49 784.01,-203.9"/>
<polygon fill="black" stroke="black" points="784.08,-207.4 793.95,-203.55 783.83,-200.41 784.08,-207.4"/>
</g>
<!-- x4&#45;&gt;n18 -->
<g id="edge16" class="edge">
<title>x4:e&#45;&gt;n18:w</title>
<path fill="none" stroke="black" d="M1168.07,-94.5C1179.44,-94.5 1184.75,-94.5 1192.62,-94.5"/>
<polygon fill="black" stroke="black" points="1192.55,-98 1202.55,-94.5 1192.55,-91 1192.55,-98"/>
</g>
<!-- x5&#45;&gt;n17 -->
<g id="edge15" class="edge">
<title>x5:e&#45;&gt;n17:w</title>
<path fill="none" stroke="black" d="M1168.07,-197.5C1179.44,-197.5 1184.75,-197.5 1192.62,-197.5"/>
<polygon fill="black" stroke="black" points="1192.55,-201 1202.55,-197.5 1192.55,-194 1192.55,-201"/>
</g>
</g>
</svg>
